<svg fill="none" height="100%" width="100%" viewBox="0 0 512 512" xmlns:xlink="http://www.w3.org/1999/xlink" xmlns="http://www.w3.org/2000/svg"><defs><clipPath id="i0"><rect height="512" width="512" y="0" x="0" /></clipPath><filter id="i1"><feColorMatrix values="0 0 0 0 1 0 0 0 0 1 0 0 0 0 1 0 0 0 1 0" type="matrix" /></filter><mask height="20000" width="20000" y="-10000" x="-10000" maskContentUnits="userSpaceOnUse" maskUnits="userSpaceOnUse" style="mask-type: alpha" mask-type="alpha" id="i2"><g filter="url(#i1)" transform="matrix(1,0,0,1,-674.5,0)"><g id="i3" transform="matrix(1,0,0,1,926.842,288.888)"><path fill="#00a3fb" d="M132.956,-160.355C132.956,-160.355,-132.956,-160.355,-132.956,-160.355C-138.034,-160.355,-142.767,-157.786,-145.534,-153.528C-145.534,-153.528,-205.111,-61.847,-205.111,-61.847C-208.932,-55.967,-208.169,-48.225,-203.275,-43.203C-203.275,-43.203,-10.741,154.315,-10.741,154.315C-4.854,160.355,4.854,160.355,10.742,154.315C10.742,154.315,203.276,-43.203,203.276,-43.203C208.171,-48.224,208.932,-55.967,205.111,-61.847C205.111,-61.847,145.533,-153.528,145.533,-153.528C142.765,-157.786,138.033,-160.355,132.956,-160.355Z" /></g></g></mask><filter id="i4"><feColorMatrix values="0 0 0 0 1 0 0 0 0 1 0 0 0 0 1 0 0 0 1 0" type="matrix" /></filter><mask height="20000" width="20000" y="-10000" x="-10000" maskContentUnits="userSpaceOnUse" maskUnits="userSpaceOnUse" style="mask-type: alpha" mask-type="alpha" id="i5"><g filter="url(#i4)" transform="matrix(1,0,0,1,-674.5,0)"><g id="i3" transform="matrix(1,0,0,1,926.842,288.888)"><path fill="#00a3fb" d="M132.956,-160.355C132.956,-160.355,-132.956,-160.355,-132.956,-160.355C-138.034,-160.355,-142.767,-157.786,-145.534,-153.528C-145.534,-153.528,-205.111,-61.847,-205.111,-61.847C-208.932,-55.967,-208.169,-48.225,-203.275,-43.203C-203.275,-43.203,-10.741,154.315,-10.741,154.315C-4.854,160.355,4.854,160.355,10.742,154.315C10.742,154.315,203.276,-43.203,203.276,-43.203C208.171,-48.224,208.932,-55.967,205.111,-61.847C205.111,-61.847,145.533,-153.528,145.533,-153.528C142.765,-157.786,138.033,-160.355,132.956,-160.355Z" /></g></g></mask><g id="i6"><g transform="matrix(1,0,0,1,-674.5,0)" id="i7"><g id="i3" transform="matrix(1,0,0,1,926.842,288.888)"><path fill="#7a1534" d="M132.956,-160.355C132.956,-160.355,-132.956,-160.355,-132.956,-160.355C-138.034,-160.355,-142.767,-157.786,-145.534,-153.528C-145.534,-153.528,-205.111,-61.847,-205.111,-61.847C-208.932,-55.967,-208.169,-48.225,-203.275,-43.203C-203.275,-43.203,-10.741,154.315,-10.741,154.315C-4.854,160.355,4.854,160.355,10.742,154.315C10.742,154.315,203.276,-43.203,203.276,-43.203C208.171,-48.224,208.932,-55.967,205.111,-61.847C205.111,-61.847,145.533,-153.528,145.533,-153.528C142.765,-157.786,138.033,-160.355,132.956,-160.355Z" /></g></g><g mask="url(#i2)" visibility="visible" id="i8"><animate repeatCount="indefinite" begin="0s" calcMode="discrete" dur="2s" values="visible; hidden; hidden" keyTimes="0; 0.5; 1" attributeName="visibility" /><g transform="translate(-105.377,288.125)"><animateTransform repeatCount="indefinite" type="translate" attributeName="transform" dur="2s" begin="0s" calcMode="spline" values="-105.377 288.125; 450.623 288.125; 450.623 288.125" keyTimes="0; 0.5; 1" keySplines="0.242 0 0.667 1; 0 0 1 1" fill="freeze" /><g transform="scale(1,1) translate(-567.123,-288.125)"><g id="i9" transform="matrix(1,0,0,1,995.269,342.661)"><path fill="#540f24" d="M138.977,-105.565C138.977,-105.565,-138.977,-105.565,-138.977,-105.565C-138.977,-105.565,-70.593,104.898,-70.593,104.898C-66.009,105.564,-61.177,104.123,-57.686,100.542C-57.686,100.542,134.847,-96.977,134.847,-96.977C137.192,-99.382,138.578,-102.414,138.977,-105.565Z" /></g><g id="i10" transform="matrix(1,0,0,1,891.567,182.814)"><path fill="#a01c44" d="M35.274,-54.282C35.274,-54.282,35.274,54.282,35.274,54.282C35.274,54.282,-35.275,54.282,-35.275,54.282C-35.275,54.282,35.274,-54.282,35.274,-54.282Z" /></g><g id="i11" transform="matrix(1,0,0,1,787.649,183.687)"><path fill="#a01c44" d="M-0.772,-53.411C-2.997,-52.235,-4.927,-50.502,-6.341,-48.326C-6.341,-48.326,-65.918,43.355,-65.918,43.355C-67.908,46.418,-68.644,49.985,-68.21,53.411C-68.21,53.411,68.644,53.411,68.644,53.411C68.644,53.411,-0.772,-53.411,-0.772,-53.411Z" /></g><g id="i12" transform="matrix(1,0,0,1,962.116,342.406)"><path fill="#350917" d="M-33.109,105.153C-33.109,105.153,35.274,-105.31,35.274,-105.31C35.274,-105.31,-35.275,-105.31,-35.275,-105.31C-35.275,-105.31,-35.275,105.309,-35.275,105.309C-34.551,105.31,-33.827,105.257,-33.109,105.153Z" /></g><g id="i13" transform="matrix(1,0,0,1,996.824,182.814)"><path fill="#a01c44" d="M62.974,-54.282C62.974,-54.282,-69.982,-54.282,-69.982,-54.282C-69.982,-54.282,0.566,54.282,0.566,54.282C0.566,54.282,69.982,-52.538,69.982,-52.538C67.853,-53.663,65.456,-54.282,62.974,-54.282Z" /></g><g id="i14" transform="matrix(1,0,0,1,714.316,342.661)"><path fill="#540f24" d="M138.977,-105.565C138.977,-105.565,-138.977,-105.565,-138.977,-105.565C-138.977,-105.565,-70.593,104.898,-70.593,104.898C-66.009,105.564,-61.177,104.123,-57.686,100.542C-57.686,100.542,134.847,-96.977,134.847,-96.977C137.192,-99.382,138.578,-102.414,138.977,-105.565Z" /></g><g id="i15" transform="matrix(1,0,0,1,749.591,182.814)"><path fill="#a01c44" d="M35.275,-54.282C35.275,-54.282,35.275,54.282,35.275,54.282C35.275,54.282,-35.274,54.282,-35.274,54.282C-35.274,54.282,35.275,-54.282,35.275,-54.282Z" /></g><g id="i16" transform="matrix(1,0,0,1,645.672,183.687)"><path fill="#a01c44" d="M-0.772,-53.411C-2.997,-52.235,-4.927,-50.502,-6.341,-48.326C-6.341,-48.326,-65.918,43.355,-65.918,43.355C-67.908,46.418,-68.644,49.985,-68.21,53.411C-68.21,53.411,68.644,53.411,68.644,53.411C68.644,53.411,-0.772,-53.411,-0.772,-53.411Z" /></g><g id="i17" transform="matrix(1,0,0,1,681.104,342.406)"><path fill="#350917" d="M-33.109,105.153C-33.109,105.153,35.274,-105.31,35.274,-105.31C35.274,-105.31,-35.275,-105.31,-35.275,-105.31C-35.275,-105.31,-35.275,105.309,-35.275,105.309C-34.551,105.31,-33.827,105.257,-33.109,105.153Z" /></g><g id="i18" transform="matrix(1,0,0,1,714.316,182.814)"><path fill="#7a1534" d="M62.974,-54.282C62.974,-54.282,-69.982,-54.282,-69.982,-54.282C-69.982,-54.282,0.566,54.282,0.566,54.282C0.566,54.282,69.982,-52.538,69.982,-52.538C67.853,-53.663,65.456,-54.282,62.974,-54.282Z" /></g><g id="i19" transform="matrix(1,0,0,1,506.696,183.687)"><path fill="#a01c44" d="M-0.772,-53.411C-2.997,-52.235,-4.927,-50.502,-6.341,-48.326C-6.341,-48.326,-65.918,43.355,-65.918,43.355C-67.908,46.418,-68.644,49.985,-68.21,53.411C-68.21,53.411,68.644,53.411,68.644,53.411C68.644,53.411,-0.772,-53.411,-0.772,-53.411Z" /></g><g id="i20" transform="matrix(1,0,0,1,436.363,342.661)"><path fill="#540f24" d="M138.977,-105.565C138.977,-105.565,-138.977,-105.565,-138.977,-105.565C-138.977,-105.565,-70.592,104.898,-70.592,104.898C-66.008,105.564,-61.177,104.123,-57.686,100.542C-57.686,100.542,134.847,-96.977,134.847,-96.977C137.192,-99.382,138.578,-102.414,138.977,-105.565Z" /></g><g id="i21" transform="matrix(1,0,0,1,471.637,182.814)"><path fill="#a01c44" d="M35.275,-54.282C35.275,-54.282,35.275,54.282,35.275,54.282C35.275,54.282,-35.275,54.282,-35.275,54.282C-35.275,54.282,35.275,-54.282,35.275,-54.282Z" /></g><g id="i22" transform="matrix(1,0,0,1,368.644,183.687)"><path fill="#a01c44" d="M-0.772,-53.411C-2.997,-52.235,-4.927,-50.502,-6.341,-48.326C-6.341,-48.326,-65.918,43.355,-65.918,43.355C-67.908,46.418,-68.644,49.985,-68.21,53.411C-68.21,53.411,68.644,53.411,68.644,53.411C68.644,53.411,-0.772,-53.411,-0.772,-53.411Z" /></g><g id="i23" transform="matrix(1,0,0,1,403.15,342.406)"><path fill="#350917" d="M-33.109,105.153C-33.109,105.153,35.275,-105.31,35.275,-105.31C35.275,-105.31,-35.275,-105.31,-35.275,-105.31C-35.275,-105.31,-35.275,105.309,-35.275,105.309C-34.551,105.31,-33.827,105.257,-33.109,105.153Z" /></g><g id="i24" transform="matrix(1,0,0,1,436.363,182.814)"><path fill="#7a1534" d="M62.974,-54.282C62.974,-54.282,-69.982,-54.282,-69.982,-54.282C-69.982,-54.282,0.567,54.282,0.567,54.282C0.567,54.282,69.982,-52.538,69.982,-52.538C67.853,-53.663,65.456,-54.282,62.974,-54.282Z" /></g><g id="i25" transform="matrix(1,0,0,1,228.742,183.687)"><path fill="#a01c44" d="M-0.772,-53.411C-2.997,-52.235,-4.927,-50.502,-6.341,-48.326C-6.341,-48.326,-65.918,43.355,-65.918,43.355C-67.908,46.418,-68.644,49.985,-68.21,53.411C-68.21,53.411,68.644,53.411,68.644,53.411C68.644,53.411,-0.772,-53.411,-0.772,-53.411Z" /></g><g id="i26" transform="matrix(1,0,0,1,158.41,342.661)"><path fill="#540f24" d="M138.977,-105.565C138.977,-105.565,-138.977,-105.565,-138.977,-105.565C-138.977,-105.565,-70.592,104.898,-70.592,104.898C-66.008,105.564,-61.177,104.123,-57.686,100.542C-57.686,100.542,134.847,-96.977,134.847,-96.977C137.192,-99.382,138.578,-102.414,138.977,-105.565Z" /></g><g id="i27" transform="matrix(1,0,0,1,193.684,182.814)"><path fill="#a01c44" d="M35.275,-54.282C35.275,-54.282,35.275,54.282,35.275,54.282C35.275,54.282,-35.275,54.282,-35.275,54.282C-35.275,54.282,35.275,-54.282,35.275,-54.282Z" /></g><g id="i28" transform="matrix(1,0,0,1,89.766,183.687)"><path fill="#a01c44" d="M-0.772,-53.411C-2.997,-52.235,-4.927,-50.502,-6.341,-48.326C-6.341,-48.326,-65.918,43.355,-65.918,43.355C-67.908,46.418,-68.644,49.985,-68.21,53.411C-68.21,53.411,68.644,53.411,68.644,53.411C68.644,53.411,-0.772,-53.411,-0.772,-53.411Z" /></g><g id="i29" transform="matrix(1,0,0,1,125.197,342.406)"><path fill="#350917" d="M-33.109,105.153C-33.109,105.153,35.275,-105.31,35.275,-105.31C35.275,-105.31,-35.275,-105.31,-35.275,-105.31C-35.275,-105.31,-35.275,105.309,-35.275,105.309C-34.551,105.31,-33.827,105.257,-33.109,105.153Z" /></g><g id="i30" transform="matrix(1,0,0,1,158.41,182.814)"><path fill="#7a1534" d="M62.973,-54.282C62.973,-54.282,-69.982,-54.282,-69.982,-54.282C-69.982,-54.282,0.566,54.282,0.566,54.282C0.566,54.282,69.982,-52.538,69.982,-52.538C67.853,-53.663,65.455,-54.282,62.973,-54.282Z" /></g><g id="i3" transform="matrix(1,0,0,1,9.717,183.687)"><path fill="#a01c44" d="M-59.699,-53.411C-61.924,-52.235,-63.854,-50.502,-65.268,-48.326C-65.268,-48.326,-124.845,43.355,-124.845,43.355C-126.835,46.418,-127.571,49.985,-127.137,53.411C-127.137,53.411,9.717,53.411,9.717,53.411C9.717,53.411,-59.699,-53.411,-59.699,-53.411Z" /></g></g></g></g><g display="none" transform="matrix(1,0,0,1,-674.5,0)" visibility="visible" id="i31"><animate repeatCount="indefinite" begin="0s" calcMode="discrete" dur="2s" values="visible; hidden; hidden" keyTimes="0; 0.5; 1" attributeName="visibility" /><g id="i3" transform="matrix(1,0,0,1,926.842,288.888)"><path fill="#00a3fb" d="M132.956,-160.355C132.956,-160.355,-132.956,-160.355,-132.956,-160.355C-138.034,-160.355,-142.767,-157.786,-145.534,-153.528C-145.534,-153.528,-205.111,-61.847,-205.111,-61.847C-208.932,-55.967,-208.169,-48.225,-203.275,-43.203C-203.275,-43.203,-10.741,154.315,-10.741,154.315C-4.854,160.355,4.854,160.355,10.742,154.315C10.742,154.315,203.276,-43.203,203.276,-43.203C208.171,-48.224,208.932,-55.967,205.111,-61.847C205.111,-61.847,145.533,-153.528,145.533,-153.528C142.765,-157.786,138.033,-160.355,132.956,-160.355Z" /></g></g><g mask="url(#i5)" visibility="hidden" id="i32"><animate repeatCount="indefinite" begin="0s" calcMode="discrete" dur="2s" values="hidden; visible; visible" keyTimes="0; 0.5; 1" attributeName="visibility" /><g transform="translate(-105.377,288.125)"><animateTransform repeatCount="indefinite" type="translate" attributeName="transform" dur="2s" begin="0s" calcMode="spline" values="-105.377 288.125; -105.377 288.125; 172.623 288.125; 172.623 288.125" keyTimes="0; 0.5; 0.766666; 1" keySplines="0 0 1 1; 0.242 0 0.667 1; 0 0 1 1" fill="freeze" /><g transform="scale(1,1) translate(-567.123,-288.125)"><g id="i9" transform="matrix(1,0,0,1,995.269,342.661)"><path fill="#540f24" d="M138.977,-105.565C138.977,-105.565,-138.977,-105.565,-138.977,-105.565C-138.977,-105.565,-70.593,104.898,-70.593,104.898C-66.009,105.564,-61.177,104.123,-57.686,100.542C-57.686,100.542,134.847,-96.977,134.847,-96.977C137.192,-99.382,138.578,-102.414,138.977,-105.565Z" /></g><g id="i10" transform="matrix(1,0,0,1,891.567,182.814)"><path fill="#a01c44" d="M35.274,-54.282C35.274,-54.282,35.274,54.282,35.274,54.282C35.274,54.282,-35.275,54.282,-35.275,54.282C-35.275,54.282,35.274,-54.282,35.274,-54.282Z" /></g><g id="i11" transform="matrix(1,0,0,1,787.649,183.687)"><path fill="#a01c44" d="M-0.772,-53.411C-2.997,-52.235,-4.927,-50.502,-6.341,-48.326C-6.341,-48.326,-65.918,43.355,-65.918,43.355C-67.908,46.418,-68.644,49.985,-68.21,53.411C-68.21,53.411,68.644,53.411,68.644,53.411C68.644,53.411,-0.772,-53.411,-0.772,-53.411Z" /></g><g id="i12" transform="matrix(1,0,0,1,962.116,342.406)"><path fill="#350917" d="M-33.109,105.153C-33.109,105.153,35.274,-105.31,35.274,-105.31C35.274,-105.31,-35.275,-105.31,-35.275,-105.31C-35.275,-105.31,-35.275,105.309,-35.275,105.309C-34.551,105.31,-33.827,105.257,-33.109,105.153Z" /></g><g id="i13" transform="matrix(1,0,0,1,996.824,182.814)"><path fill="#a01c44" d="M62.974,-54.282C62.974,-54.282,-69.982,-54.282,-69.982,-54.282C-69.982,-54.282,0.566,54.282,0.566,54.282C0.566,54.282,69.982,-52.538,69.982,-52.538C67.853,-53.663,65.456,-54.282,62.974,-54.282Z" /></g><g id="i14" transform="matrix(1,0,0,1,714.316,342.661)"><path fill="#540f24" d="M138.977,-105.565C138.977,-105.565,-138.977,-105.565,-138.977,-105.565C-138.977,-105.565,-70.593,104.898,-70.593,104.898C-66.009,105.564,-61.177,104.123,-57.686,100.542C-57.686,100.542,134.847,-96.977,134.847,-96.977C137.192,-99.382,138.578,-102.414,138.977,-105.565Z" /></g><g id="i15" transform="matrix(1,0,0,1,749.591,182.814)"><path fill="#a01c44" d="M35.275,-54.282C35.275,-54.282,35.275,54.282,35.275,54.282C35.275,54.282,-35.274,54.282,-35.274,54.282C-35.274,54.282,35.275,-54.282,35.275,-54.282Z" /></g><g id="i16" transform="matrix(1,0,0,1,645.672,183.687)"><path fill="#a01c44" d="M-0.772,-53.411C-2.997,-52.235,-4.927,-50.502,-6.341,-48.326C-6.341,-48.326,-65.918,43.355,-65.918,43.355C-67.908,46.418,-68.644,49.985,-68.21,53.411C-68.21,53.411,68.644,53.411,68.644,53.411C68.644,53.411,-0.772,-53.411,-0.772,-53.411Z" /></g><g id="i17" transform="matrix(1,0,0,1,681.104,342.406)"><path fill="#350917" d="M-33.109,105.153C-33.109,105.153,35.274,-105.31,35.274,-105.31C35.274,-105.31,-35.275,-105.31,-35.275,-105.31C-35.275,-105.31,-35.275,105.309,-35.275,105.309C-34.551,105.31,-33.827,105.257,-33.109,105.153Z" /></g><g id="i18" transform="matrix(1,0,0,1,714.316,182.814)"><path fill="#7a1534" d="M62.974,-54.282C62.974,-54.282,-69.982,-54.282,-69.982,-54.282C-69.982,-54.282,0.566,54.282,0.566,54.282C0.566,54.282,69.982,-52.538,69.982,-52.538C67.853,-53.663,65.456,-54.282,62.974,-54.282Z" /></g><g id="i19" transform="matrix(1,0,0,1,506.696,183.687)"><path fill="#a01c44" d="M-0.772,-53.411C-2.997,-52.235,-4.927,-50.502,-6.341,-48.326C-6.341,-48.326,-65.918,43.355,-65.918,43.355C-67.908,46.418,-68.644,49.985,-68.21,53.411C-68.21,53.411,68.644,53.411,68.644,53.411C68.644,53.411,-0.772,-53.411,-0.772,-53.411Z" /></g><g id="i20" transform="matrix(1,0,0,1,436.363,342.661)"><path fill="#540f24" d="M138.977,-105.565C138.977,-105.565,-138.977,-105.565,-138.977,-105.565C-138.977,-105.565,-70.592,104.898,-70.592,104.898C-66.008,105.564,-61.177,104.123,-57.686,100.542C-57.686,100.542,134.847,-96.977,134.847,-96.977C137.192,-99.382,138.578,-102.414,138.977,-105.565Z" /></g><g id="i21" transform="matrix(1,0,0,1,471.637,182.814)"><path fill="#a01c44" d="M35.275,-54.282C35.275,-54.282,35.275,54.282,35.275,54.282C35.275,54.282,-35.275,54.282,-35.275,54.282C-35.275,54.282,35.275,-54.282,35.275,-54.282Z" /></g><g id="i22" transform="matrix(1,0,0,1,367.719,183.687)"><path fill="#a01c44" d="M-0.772,-53.411C-2.997,-52.235,-4.927,-50.502,-6.341,-48.326C-6.341,-48.326,-65.918,43.355,-65.918,43.355C-67.908,46.418,-68.644,49.985,-68.21,53.411C-68.21,53.411,68.644,53.411,68.644,53.411C68.644,53.411,-0.772,-53.411,-0.772,-53.411Z" /></g><g id="i23" transform="matrix(1,0,0,1,403.15,342.406)"><path fill="#350917" d="M-33.109,105.153C-33.109,105.153,35.275,-105.31,35.275,-105.31C35.275,-105.31,-35.275,-105.31,-35.275,-105.31C-35.275,-105.31,-35.275,105.309,-35.275,105.309C-34.551,105.31,-33.827,105.257,-33.109,105.153Z" /></g><g id="i24" transform="matrix(1,0,0,1,436.363,182.814)"><path fill="#a01c44" d="M62.974,-54.282C62.974,-54.282,-69.982,-54.282,-69.982,-54.282C-69.982,-54.282,0.567,54.282,0.567,54.282C0.567,54.282,69.982,-52.538,69.982,-52.538C67.853,-53.663,65.456,-54.282,62.974,-54.282Z" /></g><g id="i25" transform="matrix(1,0,0,1,228.742,183.687)"><path fill="#a01c44" d="M-0.772,-53.411C-2.997,-52.235,-4.927,-50.502,-6.341,-48.326C-6.341,-48.326,-65.918,43.355,-65.918,43.355C-67.908,46.418,-68.644,49.985,-68.21,53.411C-68.21,53.411,68.644,53.411,68.644,53.411C68.644,53.411,-0.772,-53.411,-0.772,-53.411Z" /></g><g id="i26" transform="matrix(1,0,0,1,158.41,342.661)"><path fill="#7a1534" d="M138.977,-105.565C138.977,-105.565,-138.977,-105.565,-138.977,-105.565C-138.977,-105.565,-70.592,104.898,-70.592,104.898C-66.008,105.564,-61.177,104.123,-57.686,100.542C-57.686,100.542,134.847,-96.977,134.847,-96.977C137.192,-99.382,138.578,-102.414,138.977,-105.565Z" /></g><g id="i27" transform="matrix(1,0,0,1,193.684,182.814)"><path fill="#a01c44" d="M35.275,-54.282C35.275,-54.282,35.275,54.282,35.275,54.282C35.275,54.282,-35.275,54.282,-35.275,54.282C-35.275,54.282,35.275,-54.282,35.275,-54.282Z" /></g><g id="i28" transform="matrix(1,0,0,1,89.766,183.687)"><path fill="#a01c44" d="M-0.772,-53.411C-2.997,-52.235,-4.927,-50.502,-6.341,-48.326C-6.341,-48.326,-65.918,43.355,-65.918,43.355C-67.908,46.418,-68.644,49.985,-68.21,53.411C-68.21,53.411,68.644,53.411,68.644,53.411C68.644,53.411,-0.772,-53.411,-0.772,-53.411Z" /></g><g id="i29" transform="matrix(1,0,0,1,125.197,342.406)"><path fill="#350917" d="M-33.109,105.153C-33.109,105.153,35.275,-105.31,35.275,-105.31C35.275,-105.31,-35.275,-105.31,-35.275,-105.31C-35.275,-105.31,-35.275,105.309,-35.275,105.309C-34.551,105.31,-33.827,105.257,-33.109,105.153Z" /></g><g id="i30" transform="matrix(1,0,0,1,158.41,182.814)"><path fill="#7a1534" d="M62.973,-54.282C62.973,-54.282,-69.982,-54.282,-69.982,-54.282C-69.982,-54.282,0.566,54.282,0.566,54.282C0.566,54.282,69.982,-52.538,69.982,-52.538C67.853,-53.663,65.455,-54.282,62.973,-54.282Z" /></g><g id="i3" transform="matrix(1,0,0,1,9.717,183.687)"><path fill="#a01c44" d="M-59.699,-53.411C-61.924,-52.235,-63.854,-50.502,-65.268,-48.326C-65.268,-48.326,-124.845,43.355,-124.845,43.355C-126.835,46.418,-127.571,49.985,-127.137,53.411C-127.137,53.411,9.717,53.411,9.717,53.411C9.717,53.411,-59.699,-53.411,-59.699,-53.411Z" /></g></g></g></g><g display="none" transform="matrix(1,0,0,1,-674.5,0)" visibility="hidden" id="i33"><animate repeatCount="indefinite" begin="0s" calcMode="discrete" dur="2s" values="hidden; visible; visible" keyTimes="0; 0.5; 1" attributeName="visibility" /><g id="i3" transform="matrix(1,0,0,1,926.842,288.888)"><path fill="#00a3fb" d="M132.956,-160.355C132.956,-160.355,-132.956,-160.355,-132.956,-160.355C-138.034,-160.355,-142.767,-157.786,-145.534,-153.528C-145.534,-153.528,-205.111,-61.847,-205.111,-61.847C-208.932,-55.967,-208.169,-48.225,-203.275,-43.203C-203.275,-43.203,-10.741,154.315,-10.741,154.315C-4.854,160.355,4.854,160.355,10.742,154.315C10.742,154.315,203.276,-43.203,203.276,-43.203C208.171,-48.224,208.932,-55.967,205.111,-61.847C205.111,-61.847,145.533,-153.528,145.533,-153.528C142.765,-157.786,138.033,-160.355,132.956,-160.355Z" /></g></g></g><clipPath id="i34"><rect height="113" width="200" y="0" x="0" /></clipPath><filter id="i35"><feColorMatrix values="0 0 0 0 1 0 0 0 0 1 0 0 0 0 1 0 0 0 1 0" type="matrix" /></filter><mask height="20000" width="20000" y="-10000" x="-10000" maskContentUnits="userSpaceOnUse" maskUnits="userSpaceOnUse" style="mask-type: alpha" mask-type="alpha" id="i36"><g transform="matrix(1,0,0,1,763.008,-8.396)"><g filter="url(#i35)"><g transform="translate(-860.266,8.867)"><animateTransform repeatCount="indefinite" type="translate" attributeName="transform" dur="2s" begin="0s" calcMode="spline" values="-860.266 8.867; -860.266 8.867; -662.266 8.867; -662.266 8.867" keyTimes="0; 0.433333; 0.750317; 1" keySplines="0 0 1 1; 0.333 0 0.667 1; 0 0 1 1" fill="freeze" /><g transform="scale(1,1) translate(0,0)"><g id="i22" transform="matrix(-0.259,0.966,-0.966,-0.259,862.266,47.906)"><path fill="#a01c44" fill-rule="evenodd" d="M12.492,45.854C20.494,43.71,25.242,35.485,23.098,27.483C23.098,27.483,5.878,-36.785,5.878,-36.785C3.734,-44.786,-4.49,-49.535,-12.493,-47.39C-20.495,-45.246,-25.243,-37.021,-23.099,-29.019C-23.099,-29.019,-5.879,35.248,-5.879,35.248C-3.64,43.609,4.84,47.906,12.492,45.854Z" /></g></g></g></g></g></mask><g id="i37"><g mask="url(#i36)" transform="matrix(1,0,0,1,-763.008,8.396)" visibility="hidden" id="i38"><animate repeatCount="indefinite" begin="0s" calcMode="discrete" dur="2s" values="hidden; visible; hidden; hidden" keyTimes="0; 0.433; 0.767; 1" attributeName="visibility" /><g id="i22" transform="matrix(-0.259,0.966,-0.966,-0.259,862.266,47.906)"><path fill="#a01c44" fill-rule="evenodd" d="M12.492,45.854C20.494,43.71,25.242,35.485,23.098,27.483C23.098,27.483,5.878,-36.785,5.878,-36.785C3.734,-44.786,-4.49,-49.535,-12.493,-47.39C-20.495,-45.246,-25.243,-37.021,-23.099,-29.019C-23.099,-29.019,-5.879,35.248,-5.879,35.248C-3.64,43.609,4.84,47.906,12.492,45.854Z" /></g></g><g display="none" visibility="hidden" id="i39"><animate repeatCount="indefinite" begin="0s" calcMode="discrete" dur="2s" values="hidden; visible; hidden; hidden" keyTimes="0; 0.433; 0.767; 1" attributeName="visibility" /><g transform="translate(-860.266,8.867)"><animateTransform repeatCount="indefinite" type="translate" attributeName="transform" dur="2s" begin="0s" calcMode="spline" values="-860.266 8.867; -860.266 8.867; -662.266 8.867; -662.266 8.867" keyTimes="0; 0.433333; 0.750317; 1" keySplines="0 0 1 1; 0.333 0 0.667 1; 0 0 1 1" fill="freeze" /><g transform="scale(1,1) translate(0,0)"><g id="i22" transform="matrix(-0.259,0.966,-0.966,-0.259,862.266,47.906)"><path fill="#a01c44" fill-rule="evenodd" d="M12.492,45.854C20.494,43.71,25.242,35.485,23.098,27.483C23.098,27.483,5.878,-36.785,5.878,-36.785C3.734,-44.786,-4.49,-49.535,-12.493,-47.39C-20.495,-45.246,-25.243,-37.021,-23.099,-29.019C-23.099,-29.019,-5.879,35.248,-5.879,35.248C-3.64,43.609,4.84,47.906,12.492,45.854Z" /></g></g></g></g></g></defs><g id="i38"><animate repeatCount="indefinite" attributeName="opacity" dur="2s" begin="0s" fill="freeze" values="1; 1; 1; 0; 0" keyTimes="0; 0.35; 0.516667; 0.65; 1" keySplines="0 0 1 1; 1 0 0.667 1; 0.333 0 0.667 1; 0 0 1 1" calcMode="spline" /><g transform="translate(256,256)"><g transform="scale(0,0)"><animateTransform repeatCount="indefinite" type="scale" attributeName="transform" dur="2s" begin="0s" calcMode="spline" values="0 0; 0 0; 0.9 0.9; 1.15 1.15; 1.15 1.15" keyTimes="0; 0.35; 0.516667; 0.65; 1" keySplines="0 0 1 1; 1 0 0.667 1; 0.333 0 0.667 1; 0 0 1 1" fill="freeze" /><g transform="translate(-38,18)"><g id="i40" transform="matrix(1,0,0,1,38,-18)"><ellipse ry="200" rx="200" cy="0" cx="0" stroke-width="20" stroke="#a01c44" /></g></g></g></g></g><g id="i41"><g transform="translate(-52,384)"><animateMotion repeatCount="indefinite" dur="2s" begin="0s" calcMode="spline" keyTimes="0; 0.30775; 0.5; 1" keySplines="0.333 0 0.667 0.565; 0.333 0.552 0.667 1; 0 0 1 1" keyPoints="0; 0.553; 1; 1" path="M0 0 L342 -101 C153 -107 292 159.001 302 21" fill="freeze" /><g transform="rotate(85)"><animateTransform repeatCount="indefinite" type="rotate" attributeName="transform" dur="2s" begin="0s" calcMode="spline" values="85; 20; 0; 0" keyTimes="0; 0.166667; 0.566666; 1" keySplines="0.333 0 0.667 1; 0.203 0 0.703 1; 0 0 1 1" fill="freeze" /><g transform="scale(0,0)"><animateTransform repeatCount="indefinite" type="scale" attributeName="transform" dur="2s" begin="0s" calcMode="spline" values="0 0; 0.77 0.77; 1.2 1.2; 0.8 0.8; 0.8 0.8" keyTimes="0; 0.366667; 0.433333; 0.5; 1" keySplines="1 0 0.667 1; 0.456 0 0.774 0.957; 0.765 0 0.485 1; 0 0 1 1" fill="freeze" /><g transform="translate(-252,-446)"><g clip-path="url(#i0)"><g transform="matrix(1,0,0,1,-674.5,0)"><g transform="matrix(1,0,0,1,926.842,288.888)"><path fill="#7a1534" d="M132.956,-160.355C132.956,-160.355,-132.956,-160.355,-132.956,-160.355C-138.034,-160.355,-142.767,-157.786,-145.534,-153.528C-145.534,-153.528,-205.111,-61.847,-205.111,-61.847C-208.932,-55.967,-208.169,-48.225,-203.275,-43.203C-203.275,-43.203,-10.741,154.315,-10.741,154.315C-4.854,160.355,4.854,160.355,10.742,154.315C10.742,154.315,203.276,-43.203,203.276,-43.203C208.171,-48.224,208.932,-55.967,205.111,-61.847C205.111,-61.847,145.533,-153.528,145.533,-153.528C142.765,-157.786,138.033,-160.355,132.956,-160.355Z" /></g></g><g mask="url(#i2)" visibility="visible"><animate repeatCount="indefinite" begin="0s" calcMode="discrete" dur="2s" values="visible; hidden; hidden" keyTimes="0; 0.5; 1" attributeName="visibility" /><g transform="translate(-105.377,288.125)"><animateTransform repeatCount="indefinite" type="translate" attributeName="transform" dur="2s" begin="0s" calcMode="spline" values="-105.377 288.125; 450.623 288.125; 450.623 288.125" keyTimes="0; 0.5; 1" keySplines="0.242 0 0.667 1; 0 0 1 1" fill="freeze" /><g transform="scale(1,1) translate(-567.123,-288.125)"><g transform="matrix(1,0,0,1,995.269,342.661)"><path fill="#540f24" d="M138.977,-105.565C138.977,-105.565,-138.977,-105.565,-138.977,-105.565C-138.977,-105.565,-70.593,104.898,-70.593,104.898C-66.009,105.564,-61.177,104.123,-57.686,100.542C-57.686,100.542,134.847,-96.977,134.847,-96.977C137.192,-99.382,138.578,-102.414,138.977,-105.565Z" /></g><g transform="matrix(1,0,0,1,891.567,182.814)"><path fill="#a01c44" d="M35.274,-54.282C35.274,-54.282,35.274,54.282,35.274,54.282C35.274,54.282,-35.275,54.282,-35.275,54.282C-35.275,54.282,35.274,-54.282,35.274,-54.282Z" /></g><g transform="matrix(1,0,0,1,787.649,183.687)"><path fill="#a01c44" d="M-0.772,-53.411C-2.997,-52.235,-4.927,-50.502,-6.341,-48.326C-6.341,-48.326,-65.918,43.355,-65.918,43.355C-67.908,46.418,-68.644,49.985,-68.21,53.411C-68.21,53.411,68.644,53.411,68.644,53.411C68.644,53.411,-0.772,-53.411,-0.772,-53.411Z" /></g><g transform="matrix(1,0,0,1,962.116,342.406)"><path fill="#350917" d="M-33.109,105.153C-33.109,105.153,35.274,-105.31,35.274,-105.31C35.274,-105.31,-35.275,-105.31,-35.275,-105.31C-35.275,-105.31,-35.275,105.309,-35.275,105.309C-34.551,105.31,-33.827,105.257,-33.109,105.153Z" /></g><g transform="matrix(1,0,0,1,996.824,182.814)"><path fill="#a01c44" d="M62.974,-54.282C62.974,-54.282,-69.982,-54.282,-69.982,-54.282C-69.982,-54.282,0.566,54.282,0.566,54.282C0.566,54.282,69.982,-52.538,69.982,-52.538C67.853,-53.663,65.456,-54.282,62.974,-54.282Z" /></g><g transform="matrix(1,0,0,1,714.316,342.661)"><path fill="#540f24" d="M138.977,-105.565C138.977,-105.565,-138.977,-105.565,-138.977,-105.565C-138.977,-105.565,-70.593,104.898,-70.593,104.898C-66.009,105.564,-61.177,104.123,-57.686,100.542C-57.686,100.542,134.847,-96.977,134.847,-96.977C137.192,-99.382,138.578,-102.414,138.977,-105.565Z" /></g><g transform="matrix(1,0,0,1,749.591,182.814)"><path fill="#a01c44" d="M35.275,-54.282C35.275,-54.282,35.275,54.282,35.275,54.282C35.275,54.282,-35.274,54.282,-35.274,54.282C-35.274,54.282,35.275,-54.282,35.275,-54.282Z" /></g><g transform="matrix(1,0,0,1,645.672,183.687)"><path fill="#a01c44" d="M-0.772,-53.411C-2.997,-52.235,-4.927,-50.502,-6.341,-48.326C-6.341,-48.326,-65.918,43.355,-65.918,43.355C-67.908,46.418,-68.644,49.985,-68.21,53.411C-68.21,53.411,68.644,53.411,68.644,53.411C68.644,53.411,-0.772,-53.411,-0.772,-53.411Z" /></g><g transform="matrix(1,0,0,1,681.104,342.406)"><path fill="#350917" d="M-33.109,105.153C-33.109,105.153,35.274,-105.31,35.274,-105.31C35.274,-105.31,-35.275,-105.31,-35.275,-105.31C-35.275,-105.31,-35.275,105.309,-35.275,105.309C-34.551,105.31,-33.827,105.257,-33.109,105.153Z" /></g><g transform="matrix(1,0,0,1,714.316,182.814)"><path fill="#7a1534" d="M62.974,-54.282C62.974,-54.282,-69.982,-54.282,-69.982,-54.282C-69.982,-54.282,0.566,54.282,0.566,54.282C0.566,54.282,69.982,-52.538,69.982,-52.538C67.853,-53.663,65.456,-54.282,62.974,-54.282Z" /></g><g transform="matrix(1,0,0,1,506.696,183.687)"><path fill="#a01c44" d="M-0.772,-53.411C-2.997,-52.235,-4.927,-50.502,-6.341,-48.326C-6.341,-48.326,-65.918,43.355,-65.918,43.355C-67.908,46.418,-68.644,49.985,-68.21,53.411C-68.21,53.411,68.644,53.411,68.644,53.411C68.644,53.411,-0.772,-53.411,-0.772,-53.411Z" /></g><g transform="matrix(1,0,0,1,436.363,342.661)"><path fill="#540f24" d="M138.977,-105.565C138.977,-105.565,-138.977,-105.565,-138.977,-105.565C-138.977,-105.565,-70.592,104.898,-70.592,104.898C-66.008,105.564,-61.177,104.123,-57.686,100.542C-57.686,100.542,134.847,-96.977,134.847,-96.977C137.192,-99.382,138.578,-102.414,138.977,-105.565Z" /></g><g transform="matrix(1,0,0,1,471.637,182.814)"><path fill="#a01c44" d="M35.275,-54.282C35.275,-54.282,35.275,54.282,35.275,54.282C35.275,54.282,-35.275,54.282,-35.275,54.282C-35.275,54.282,35.275,-54.282,35.275,-54.282Z" /></g><g transform="matrix(1,0,0,1,368.644,183.687)"><path fill="#a01c44" d="M-0.772,-53.411C-2.997,-52.235,-4.927,-50.502,-6.341,-48.326C-6.341,-48.326,-65.918,43.355,-65.918,43.355C-67.908,46.418,-68.644,49.985,-68.21,53.411C-68.21,53.411,68.644,53.411,68.644,53.411C68.644,53.411,-0.772,-53.411,-0.772,-53.411Z" /></g><g transform="matrix(1,0,0,1,403.15,342.406)"><path fill="#350917" d="M-33.109,105.153C-33.109,105.153,35.275,-105.31,35.275,-105.31C35.275,-105.31,-35.275,-105.31,-35.275,-105.31C-35.275,-105.31,-35.275,105.309,-35.275,105.309C-34.551,105.31,-33.827,105.257,-33.109,105.153Z" /></g><g transform="matrix(1,0,0,1,436.363,182.814)"><path fill="#7a1534" d="M62.974,-54.282C62.974,-54.282,-69.982,-54.282,-69.982,-54.282C-69.982,-54.282,0.567,54.282,0.567,54.282C0.567,54.282,69.982,-52.538,69.982,-52.538C67.853,-53.663,65.456,-54.282,62.974,-54.282Z" /></g><g transform="matrix(1,0,0,1,228.742,183.687)"><path fill="#a01c44" d="M-0.772,-53.411C-2.997,-52.235,-4.927,-50.502,-6.341,-48.326C-6.341,-48.326,-65.918,43.355,-65.918,43.355C-67.908,46.418,-68.644,49.985,-68.21,53.411C-68.21,53.411,68.644,53.411,68.644,53.411C68.644,53.411,-0.772,-53.411,-0.772,-53.411Z" /></g><g transform="matrix(1,0,0,1,158.41,342.661)"><path fill="#540f24" d="M138.977,-105.565C138.977,-105.565,-138.977,-105.565,-138.977,-105.565C-138.977,-105.565,-70.592,104.898,-70.592,104.898C-66.008,105.564,-61.177,104.123,-57.686,100.542C-57.686,100.542,134.847,-96.977,134.847,-96.977C137.192,-99.382,138.578,-102.414,138.977,-105.565Z" /></g><g transform="matrix(1,0,0,1,193.684,182.814)"><path fill="#a01c44" d="M35.275,-54.282C35.275,-54.282,35.275,54.282,35.275,54.282C35.275,54.282,-35.275,54.282,-35.275,54.282C-35.275,54.282,35.275,-54.282,35.275,-54.282Z" /></g><g transform="matrix(1,0,0,1,89.766,183.687)"><path fill="#a01c44" d="M-0.772,-53.411C-2.997,-52.235,-4.927,-50.502,-6.341,-48.326C-6.341,-48.326,-65.918,43.355,-65.918,43.355C-67.908,46.418,-68.644,49.985,-68.21,53.411C-68.21,53.411,68.644,53.411,68.644,53.411C68.644,53.411,-0.772,-53.411,-0.772,-53.411Z" /></g><g transform="matrix(1,0,0,1,125.197,342.406)"><path fill="#350917" d="M-33.109,105.153C-33.109,105.153,35.275,-105.31,35.275,-105.31C35.275,-105.31,-35.275,-105.31,-35.275,-105.31C-35.275,-105.31,-35.275,105.309,-35.275,105.309C-34.551,105.31,-33.827,105.257,-33.109,105.153Z" /></g><g transform="matrix(1,0,0,1,158.41,182.814)"><path fill="#7a1534" d="M62.973,-54.282C62.973,-54.282,-69.982,-54.282,-69.982,-54.282C-69.982,-54.282,0.566,54.282,0.566,54.282C0.566,54.282,69.982,-52.538,69.982,-52.538C67.853,-53.663,65.455,-54.282,62.973,-54.282Z" /></g><g transform="matrix(1,0,0,1,9.717,183.687)"><path fill="#a01c44" d="M-59.699,-53.411C-61.924,-52.235,-63.854,-50.502,-65.268,-48.326C-65.268,-48.326,-124.845,43.355,-124.845,43.355C-126.835,46.418,-127.571,49.985,-127.137,53.411C-127.137,53.411,9.717,53.411,9.717,53.411C9.717,53.411,-59.699,-53.411,-59.699,-53.411Z" /></g></g></g></g><g display="none" transform="matrix(1,0,0,1,-674.5,0)" visibility="visible"><animate repeatCount="indefinite" begin="0s" calcMode="discrete" dur="2s" values="visible; hidden; hidden" keyTimes="0; 0.5; 1" attributeName="visibility" /><g transform="matrix(1,0,0,1,926.842,288.888)"><path fill="#00a3fb" d="M132.956,-160.355C132.956,-160.355,-132.956,-160.355,-132.956,-160.355C-138.034,-160.355,-142.767,-157.786,-145.534,-153.528C-145.534,-153.528,-205.111,-61.847,-205.111,-61.847C-208.932,-55.967,-208.169,-48.225,-203.275,-43.203C-203.275,-43.203,-10.741,154.315,-10.741,154.315C-4.854,160.355,4.854,160.355,10.742,154.315C10.742,154.315,203.276,-43.203,203.276,-43.203C208.171,-48.224,208.932,-55.967,205.111,-61.847C205.111,-61.847,145.533,-153.528,145.533,-153.528C142.765,-157.786,138.033,-160.355,132.956,-160.355Z" /></g></g><g mask="url(#i5)" visibility="hidden"><animate repeatCount="indefinite" begin="0s" calcMode="discrete" dur="2s" values="hidden; visible; visible" keyTimes="0; 0.5; 1" attributeName="visibility" /><g transform="translate(-105.377,288.125)"><animateTransform repeatCount="indefinite" type="translate" attributeName="transform" dur="2s" begin="0s" calcMode="spline" values="-105.377 288.125; -105.377 288.125; 172.623 288.125; 172.623 288.125" keyTimes="0; 0.5; 0.766666; 1" keySplines="0 0 1 1; 0.242 0 0.667 1; 0 0 1 1" fill="freeze" /><g transform="scale(1,1) translate(-567.123,-288.125)"><g transform="matrix(1,0,0,1,995.269,342.661)"><path fill="#540f24" d="M138.977,-105.565C138.977,-105.565,-138.977,-105.565,-138.977,-105.565C-138.977,-105.565,-70.593,104.898,-70.593,104.898C-66.009,105.564,-61.177,104.123,-57.686,100.542C-57.686,100.542,134.847,-96.977,134.847,-96.977C137.192,-99.382,138.578,-102.414,138.977,-105.565Z" /></g><g transform="matrix(1,0,0,1,891.567,182.814)"><path fill="#a01c44" d="M35.274,-54.282C35.274,-54.282,35.274,54.282,35.274,54.282C35.274,54.282,-35.275,54.282,-35.275,54.282C-35.275,54.282,35.274,-54.282,35.274,-54.282Z" /></g><g transform="matrix(1,0,0,1,787.649,183.687)"><path fill="#a01c44" d="M-0.772,-53.411C-2.997,-52.235,-4.927,-50.502,-6.341,-48.326C-6.341,-48.326,-65.918,43.355,-65.918,43.355C-67.908,46.418,-68.644,49.985,-68.21,53.411C-68.21,53.411,68.644,53.411,68.644,53.411C68.644,53.411,-0.772,-53.411,-0.772,-53.411Z" /></g><g transform="matrix(1,0,0,1,962.116,342.406)"><path fill="#350917" d="M-33.109,105.153C-33.109,105.153,35.274,-105.31,35.274,-105.31C35.274,-105.31,-35.275,-105.31,-35.275,-105.31C-35.275,-105.31,-35.275,105.309,-35.275,105.309C-34.551,105.31,-33.827,105.257,-33.109,105.153Z" /></g><g transform="matrix(1,0,0,1,996.824,182.814)"><path fill="#a01c44" d="M62.974,-54.282C62.974,-54.282,-69.982,-54.282,-69.982,-54.282C-69.982,-54.282,0.566,54.282,0.566,54.282C0.566,54.282,69.982,-52.538,69.982,-52.538C67.853,-53.663,65.456,-54.282,62.974,-54.282Z" /></g><g transform="matrix(1,0,0,1,714.316,342.661)"><path fill="#540f24" d="M138.977,-105.565C138.977,-105.565,-138.977,-105.565,-138.977,-105.565C-138.977,-105.565,-70.593,104.898,-70.593,104.898C-66.009,105.564,-61.177,104.123,-57.686,100.542C-57.686,100.542,134.847,-96.977,134.847,-96.977C137.192,-99.382,138.578,-102.414,138.977,-105.565Z" /></g><g transform="matrix(1,0,0,1,749.591,182.814)"><path fill="#a01c44" d="M35.275,-54.282C35.275,-54.282,35.275,54.282,35.275,54.282C35.275,54.282,-35.274,54.282,-35.274,54.282C-35.274,54.282,35.275,-54.282,35.275,-54.282Z" /></g><g transform="matrix(1,0,0,1,645.672,183.687)"><path fill="#a01c44" d="M-0.772,-53.411C-2.997,-52.235,-4.927,-50.502,-6.341,-48.326C-6.341,-48.326,-65.918,43.355,-65.918,43.355C-67.908,46.418,-68.644,49.985,-68.21,53.411C-68.21,53.411,68.644,53.411,68.644,53.411C68.644,53.411,-0.772,-53.411,-0.772,-53.411Z" /></g><g transform="matrix(1,0,0,1,681.104,342.406)"><path fill="#350917" d="M-33.109,105.153C-33.109,105.153,35.274,-105.31,35.274,-105.31C35.274,-105.31,-35.275,-105.31,-35.275,-105.31C-35.275,-105.31,-35.275,105.309,-35.275,105.309C-34.551,105.31,-33.827,105.257,-33.109,105.153Z" /></g><g transform="matrix(1,0,0,1,714.316,182.814)"><path fill="#7a1534" d="M62.974,-54.282C62.974,-54.282,-69.982,-54.282,-69.982,-54.282C-69.982,-54.282,0.566,54.282,0.566,54.282C0.566,54.282,69.982,-52.538,69.982,-52.538C67.853,-53.663,65.456,-54.282,62.974,-54.282Z" /></g><g transform="matrix(1,0,0,1,506.696,183.687)"><path fill="#a01c44" d="M-0.772,-53.411C-2.997,-52.235,-4.927,-50.502,-6.341,-48.326C-6.341,-48.326,-65.918,43.355,-65.918,43.355C-67.908,46.418,-68.644,49.985,-68.21,53.411C-68.21,53.411,68.644,53.411,68.644,53.411C68.644,53.411,-0.772,-53.411,-0.772,-53.411Z" /></g><g transform="matrix(1,0,0,1,436.363,342.661)"><path fill="#540f24" d="M138.977,-105.565C138.977,-105.565,-138.977,-105.565,-138.977,-105.565C-138.977,-105.565,-70.592,104.898,-70.592,104.898C-66.008,105.564,-61.177,104.123,-57.686,100.542C-57.686,100.542,134.847,-96.977,134.847,-96.977C137.192,-99.382,138.578,-102.414,138.977,-105.565Z" /></g><g transform="matrix(1,0,0,1,471.637,182.814)"><path fill="#a01c44" d="M35.275,-54.282C35.275,-54.282,35.275,54.282,35.275,54.282C35.275,54.282,-35.275,54.282,-35.275,54.282C-35.275,54.282,35.275,-54.282,35.275,-54.282Z" /></g><g transform="matrix(1,0,0,1,367.719,183.687)"><path fill="#a01c44" d="M-0.772,-53.411C-2.997,-52.235,-4.927,-50.502,-6.341,-48.326C-6.341,-48.326,-65.918,43.355,-65.918,43.355C-67.908,46.418,-68.644,49.985,-68.21,53.411C-68.21,53.411,68.644,53.411,68.644,53.411C68.644,53.411,-0.772,-53.411,-0.772,-53.411Z" /></g><g transform="matrix(1,0,0,1,403.15,342.406)"><path fill="#350917" d="M-33.109,105.153C-33.109,105.153,35.275,-105.31,35.275,-105.31C35.275,-105.31,-35.275,-105.31,-35.275,-105.31C-35.275,-105.31,-35.275,105.309,-35.275,105.309C-34.551,105.31,-33.827,105.257,-33.109,105.153Z" /></g><g transform="matrix(1,0,0,1,436.363,182.814)"><path fill="#a01c44" d="M62.974,-54.282C62.974,-54.282,-69.982,-54.282,-69.982,-54.282C-69.982,-54.282,0.567,54.282,0.567,54.282C0.567,54.282,69.982,-52.538,69.982,-52.538C67.853,-53.663,65.456,-54.282,62.974,-54.282Z" /></g><g transform="matrix(1,0,0,1,228.742,183.687)"><path fill="#a01c44" d="M-0.772,-53.411C-2.997,-52.235,-4.927,-50.502,-6.341,-48.326C-6.341,-48.326,-65.918,43.355,-65.918,43.355C-67.908,46.418,-68.644,49.985,-68.21,53.411C-68.21,53.411,68.644,53.411,68.644,53.411C68.644,53.411,-0.772,-53.411,-0.772,-53.411Z" /></g><g transform="matrix(1,0,0,1,158.41,342.661)"><path fill="#7a1534" d="M138.977,-105.565C138.977,-105.565,-138.977,-105.565,-138.977,-105.565C-138.977,-105.565,-70.592,104.898,-70.592,104.898C-66.008,105.564,-61.177,104.123,-57.686,100.542C-57.686,100.542,134.847,-96.977,134.847,-96.977C137.192,-99.382,138.578,-102.414,138.977,-105.565Z" /></g><g transform="matrix(1,0,0,1,193.684,182.814)"><path fill="#a01c44" d="M35.275,-54.282C35.275,-54.282,35.275,54.282,35.275,54.282C35.275,54.282,-35.275,54.282,-35.275,54.282C-35.275,54.282,35.275,-54.282,35.275,-54.282Z" /></g><g transform="matrix(1,0,0,1,89.766,183.687)"><path fill="#a01c44" d="M-0.772,-53.411C-2.997,-52.235,-4.927,-50.502,-6.341,-48.326C-6.341,-48.326,-65.918,43.355,-65.918,43.355C-67.908,46.418,-68.644,49.985,-68.21,53.411C-68.21,53.411,68.644,53.411,68.644,53.411C68.644,53.411,-0.772,-53.411,-0.772,-53.411Z" /></g><g transform="matrix(1,0,0,1,125.197,342.406)"><path fill="#350917" d="M-33.109,105.153C-33.109,105.153,35.275,-105.31,35.275,-105.31C35.275,-105.31,-35.275,-105.31,-35.275,-105.31C-35.275,-105.31,-35.275,105.309,-35.275,105.309C-34.551,105.31,-33.827,105.257,-33.109,105.153Z" /></g><g transform="matrix(1,0,0,1,158.41,182.814)"><path fill="#7a1534" d="M62.973,-54.282C62.973,-54.282,-69.982,-54.282,-69.982,-54.282C-69.982,-54.282,0.566,54.282,0.566,54.282C0.566,54.282,69.982,-52.538,69.982,-52.538C67.853,-53.663,65.455,-54.282,62.973,-54.282Z" /></g><g transform="matrix(1,0,0,1,9.717,183.687)"><path fill="#a01c44" d="M-59.699,-53.411C-61.924,-52.235,-63.854,-50.502,-65.268,-48.326C-65.268,-48.326,-124.845,43.355,-124.845,43.355C-126.835,46.418,-127.571,49.985,-127.137,53.411C-127.137,53.411,9.717,53.411,9.717,53.411C9.717,53.411,-59.699,-53.411,-59.699,-53.411Z" /></g></g></g></g><g display="none" transform="matrix(1,0,0,1,-674.5,0)" visibility="hidden"><animate repeatCount="indefinite" begin="0s" calcMode="discrete" dur="2s" values="hidden; visible; visible" keyTimes="0; 0.5; 1" attributeName="visibility" /><g transform="matrix(1,0,0,1,926.842,288.888)"><path fill="#00a3fb" d="M132.956,-160.355C132.956,-160.355,-132.956,-160.355,-132.956,-160.355C-138.034,-160.355,-142.767,-157.786,-145.534,-153.528C-145.534,-153.528,-205.111,-61.847,-205.111,-61.847C-208.932,-55.967,-208.169,-48.225,-203.275,-43.203C-203.275,-43.203,-10.741,154.315,-10.741,154.315C-4.854,160.355,4.854,160.355,10.742,154.315C10.742,154.315,203.276,-43.203,203.276,-43.203C208.171,-48.224,208.932,-55.967,205.111,-61.847C205.111,-61.847,145.533,-153.528,145.533,-153.528C142.765,-157.786,138.033,-160.355,132.956,-160.355Z" /></g></g></g></g></g></g></g></g><g transform="matrix(-0.259,-0.966,0.966,-0.259,162.307,171.216)" visibility="hidden" id="i42"><animate repeatCount="indefinite" begin="0s" calcMode="discrete" dur="2s" values="hidden; visible; hidden; hidden" keyTimes="0; 0.433; 0.767; 1" attributeName="visibility" /><g clip-path="url(#i34)"><g mask="url(#i36)" transform="matrix(1,0,0,1,-763.008,8.396)" visibility="hidden"><animate repeatCount="indefinite" begin="0s" calcMode="discrete" dur="2s" values="hidden; visible; hidden; hidden" keyTimes="0; 0.433; 0.767; 1" attributeName="visibility" /><g transform="matrix(-0.259,0.966,-0.966,-0.259,862.266,47.906)"><path fill="#a01c44" fill-rule="evenodd" d="M12.492,45.854C20.494,43.71,25.242,35.485,23.098,27.483C23.098,27.483,5.878,-36.785,5.878,-36.785C3.734,-44.786,-4.49,-49.535,-12.493,-47.39C-20.495,-45.246,-25.243,-37.021,-23.099,-29.019C-23.099,-29.019,-5.879,35.248,-5.879,35.248C-3.64,43.609,4.84,47.906,12.492,45.854Z" /></g></g><g display="none" visibility="hidden"><animate repeatCount="indefinite" begin="0s" calcMode="discrete" dur="2s" values="hidden; visible; hidden; hidden" keyTimes="0; 0.433; 0.767; 1" attributeName="visibility" /><g transform="translate(-860.266,8.867)"><animateTransform repeatCount="indefinite" type="translate" attributeName="transform" dur="2s" begin="0s" calcMode="spline" values="-860.266 8.867; -860.266 8.867; -662.266 8.867; -662.266 8.867" keyTimes="0; 0.433333; 0.750317; 1" keySplines="0 0 1 1; 0.333 0 0.667 1; 0 0 1 1" fill="freeze" /><g transform="scale(1,1) translate(0,0)"><g transform="matrix(-0.259,0.966,-0.966,-0.259,862.266,47.906)"><path fill="#a01c44" fill-rule="evenodd" d="M12.492,45.854C20.494,43.71,25.242,35.485,23.098,27.483C23.098,27.483,5.878,-36.785,5.878,-36.785C3.734,-44.786,-4.49,-49.535,-12.493,-47.39C-20.495,-45.246,-25.243,-37.021,-23.099,-29.019C-23.099,-29.019,-5.879,35.248,-5.879,35.248C-3.64,43.609,4.84,47.906,12.492,45.854Z" /></g></g></g></g></g></g><g transform="matrix(-0.695,-0.719,0.719,-0.695,90.823,209.182)" visibility="hidden" id="i42"><animate repeatCount="indefinite" begin="0s" calcMode="discrete" dur="2s" values="hidden; visible; hidden; hidden" keyTimes="0; 0.433; 0.767; 1" attributeName="visibility" /><g clip-path="url(#i34)"><g mask="url(#i36)" transform="matrix(1,0,0,1,-763.008,8.396)" visibility="hidden"><animate repeatCount="indefinite" begin="0s" calcMode="discrete" dur="2s" values="hidden; visible; hidden; hidden" keyTimes="0; 0.433; 0.767; 1" attributeName="visibility" /><g transform="matrix(-0.259,0.966,-0.966,-0.259,862.266,47.906)"><path fill="#a01c44" fill-rule="evenodd" d="M12.492,45.854C20.494,43.71,25.242,35.485,23.098,27.483C23.098,27.483,5.878,-36.785,5.878,-36.785C3.734,-44.786,-4.49,-49.535,-12.493,-47.39C-20.495,-45.246,-25.243,-37.021,-23.099,-29.019C-23.099,-29.019,-5.879,35.248,-5.879,35.248C-3.64,43.609,4.84,47.906,12.492,45.854Z" /></g></g><g display="none" visibility="hidden"><animate repeatCount="indefinite" begin="0s" calcMode="discrete" dur="2s" values="hidden; visible; hidden; hidden" keyTimes="0; 0.433; 0.767; 1" attributeName="visibility" /><g transform="translate(-860.266,8.867)"><animateTransform repeatCount="indefinite" type="translate" attributeName="transform" dur="2s" begin="0s" calcMode="spline" values="-860.266 8.867; -860.266 8.867; -662.266 8.867; -662.266 8.867" keyTimes="0; 0.433333; 0.750317; 1" keySplines="0 0 1 1; 0.333 0 0.667 1; 0 0 1 1" fill="freeze" /><g transform="scale(1,1) translate(0,0)"><g transform="matrix(-0.259,0.966,-0.966,-0.259,862.266,47.906)"><path fill="#a01c44" fill-rule="evenodd" d="M12.492,45.854C20.494,43.71,25.242,35.485,23.098,27.483C23.098,27.483,5.878,-36.785,5.878,-36.785C3.734,-44.786,-4.49,-49.535,-12.493,-47.39C-20.495,-45.246,-25.243,-37.021,-23.099,-29.019C-23.099,-29.019,-5.879,35.248,-5.879,35.248C-3.64,43.609,4.84,47.906,12.492,45.854Z" /></g></g></g></g></g></g><g transform="matrix(0.242,-0.97,0.97,0.242,230.986,145.361)" visibility="hidden" id="i42"><animate repeatCount="indefinite" begin="0s" calcMode="discrete" dur="2s" values="hidden; visible; hidden; hidden" keyTimes="0; 0.433; 0.767; 1" attributeName="visibility" /><g clip-path="url(#i34)"><g mask="url(#i36)" transform="matrix(1,0,0,1,-763.008,8.396)" visibility="hidden"><animate repeatCount="indefinite" begin="0s" calcMode="discrete" dur="2s" values="hidden; visible; hidden; hidden" keyTimes="0; 0.433; 0.767; 1" attributeName="visibility" /><g transform="matrix(-0.259,0.966,-0.966,-0.259,862.266,47.906)"><path fill="#a01c44" fill-rule="evenodd" d="M12.492,45.854C20.494,43.71,25.242,35.485,23.098,27.483C23.098,27.483,5.878,-36.785,5.878,-36.785C3.734,-44.786,-4.49,-49.535,-12.493,-47.39C-20.495,-45.246,-25.243,-37.021,-23.099,-29.019C-23.099,-29.019,-5.879,35.248,-5.879,35.248C-3.64,43.609,4.84,47.906,12.492,45.854Z" /></g></g><g display="none" visibility="hidden"><animate repeatCount="indefinite" begin="0s" calcMode="discrete" dur="2s" values="hidden; visible; hidden; hidden" keyTimes="0; 0.433; 0.767; 1" attributeName="visibility" /><g transform="translate(-860.266,8.867)"><animateTransform repeatCount="indefinite" type="translate" attributeName="transform" dur="2s" begin="0s" calcMode="spline" values="-860.266 8.867; -860.266 8.867; -662.266 8.867; -662.266 8.867" keyTimes="0; 0.433333; 0.750317; 1" keySplines="0 0 1 1; 0.333 0 0.667 1; 0 0 1 1" fill="freeze" /><g transform="scale(1,1) translate(0,0)"><g transform="matrix(-0.259,0.966,-0.966,-0.259,862.266,47.906)"><path fill="#a01c44" fill-rule="evenodd" d="M12.492,45.854C20.494,43.71,25.242,35.485,23.098,27.483C23.098,27.483,5.878,-36.785,5.878,-36.785C3.734,-44.786,-4.49,-49.535,-12.493,-47.39C-20.495,-45.246,-25.243,-37.021,-23.099,-29.019C-23.099,-29.019,-5.879,35.248,-5.879,35.248C-3.64,43.609,4.84,47.906,12.492,45.854Z" /></g></g></g></g></g></g><g transform="matrix(0.707,-0.707,0.707,0.707,327.338,129.759)" visibility="hidden" id="i42"><animate repeatCount="indefinite" begin="0s" calcMode="discrete" dur="2s" values="hidden; visible; hidden; hidden" keyTimes="0; 0.433; 0.767; 1" attributeName="visibility" /><g clip-path="url(#i34)"><g mask="url(#i36)" transform="matrix(1,0,0,1,-763.008,8.396)" visibility="hidden"><animate repeatCount="indefinite" begin="0s" calcMode="discrete" dur="2s" values="hidden; visible; hidden; hidden" keyTimes="0; 0.433; 0.767; 1" attributeName="visibility" /><g transform="matrix(-0.259,0.966,-0.966,-0.259,862.266,47.906)"><path fill="#a01c44" fill-rule="evenodd" d="M12.492,45.854C20.494,43.71,25.242,35.485,23.098,27.483C23.098,27.483,5.878,-36.785,5.878,-36.785C3.734,-44.786,-4.49,-49.535,-12.493,-47.39C-20.495,-45.246,-25.243,-37.021,-23.099,-29.019C-23.099,-29.019,-5.879,35.248,-5.879,35.248C-3.64,43.609,4.84,47.906,12.492,45.854Z" /></g></g><g display="none" visibility="hidden"><animate repeatCount="indefinite" begin="0s" calcMode="discrete" dur="2s" values="hidden; visible; hidden; hidden" keyTimes="0; 0.433; 0.767; 1" attributeName="visibility" /><g transform="translate(-860.266,8.867)"><animateTransform repeatCount="indefinite" type="translate" attributeName="transform" dur="2s" begin="0s" calcMode="spline" values="-860.266 8.867; -860.266 8.867; -662.266 8.867; -662.266 8.867" keyTimes="0; 0.433333; 0.750317; 1" keySplines="0 0 1 1; 0.333 0 0.667 1; 0 0 1 1" fill="freeze" /><g transform="scale(1,1) translate(0,0)"><g transform="matrix(-0.259,0.966,-0.966,-0.259,862.266,47.906)"><path fill="#a01c44" fill-rule="evenodd" d="M12.492,45.854C20.494,43.71,25.242,35.485,23.098,27.483C23.098,27.483,5.878,-36.785,5.878,-36.785C3.734,-44.786,-4.49,-49.535,-12.493,-47.39C-20.495,-45.246,-25.243,-37.021,-23.099,-29.019C-23.099,-29.019,-5.879,35.248,-5.879,35.248C-3.64,43.609,4.84,47.906,12.492,45.854Z" /></g></g></g></g></g></g><g transform="matrix(0.966,0.259,-0.259,0.966,369.031,258.543)" visibility="hidden" id="i42"><animate repeatCount="indefinite" begin="0s" calcMode="discrete" dur="2s" values="hidden; visible; hidden; hidden" keyTimes="0; 0.433; 0.767; 1" attributeName="visibility" /><g clip-path="url(#i34)"><g mask="url(#i36)" transform="matrix(1,0,0,1,-763.008,8.396)" visibility="hidden"><animate repeatCount="indefinite" begin="0s" calcMode="discrete" dur="2s" values="hidden; visible; hidden; hidden" keyTimes="0; 0.433; 0.767; 1" attributeName="visibility" /><g transform="matrix(-0.259,0.966,-0.966,-0.259,862.266,47.906)"><path fill="#a01c44" fill-rule="evenodd" d="M12.492,45.854C20.494,43.71,25.242,35.485,23.098,27.483C23.098,27.483,5.878,-36.785,5.878,-36.785C3.734,-44.786,-4.49,-49.535,-12.493,-47.39C-20.495,-45.246,-25.243,-37.021,-23.099,-29.019C-23.099,-29.019,-5.879,35.248,-5.879,35.248C-3.64,43.609,4.84,47.906,12.492,45.854Z" /></g></g><g display="none" visibility="hidden"><animate repeatCount="indefinite" begin="0s" calcMode="discrete" dur="2s" values="hidden; visible; hidden; hidden" keyTimes="0; 0.433; 0.767; 1" attributeName="visibility" /><g transform="translate(-860.266,8.867)"><animateTransform repeatCount="indefinite" type="translate" attributeName="transform" dur="2s" begin="0s" calcMode="spline" values="-860.266 8.867; -860.266 8.867; -662.266 8.867; -662.266 8.867" keyTimes="0; 0.433333; 0.750317; 1" keySplines="0 0 1 1; 0.333 0 0.667 1; 0 0 1 1" fill="freeze" /><g transform="scale(1,1) translate(0,0)"><g transform="matrix(-0.259,0.966,-0.966,-0.259,862.266,47.906)"><path fill="#a01c44" fill-rule="evenodd" d="M12.492,45.854C20.494,43.71,25.242,35.485,23.098,27.483C23.098,27.483,5.878,-36.785,5.878,-36.785C3.734,-44.786,-4.49,-49.535,-12.493,-47.39C-20.495,-45.246,-25.243,-37.021,-23.099,-29.019C-23.099,-29.019,-5.879,35.248,-5.879,35.248C-3.64,43.609,4.84,47.906,12.492,45.854Z" /></g></g></g></g></g></g><g transform="matrix(0.731,0.682,-0.682,0.731,346.398,305.479)" visibility="hidden" id="i42"><animate repeatCount="indefinite" begin="0s" calcMode="discrete" dur="2s" values="hidden; visible; hidden; hidden" keyTimes="0; 0.433; 0.767; 1" attributeName="visibility" /><g clip-path="url(#i34)"><g mask="url(#i36)" transform="matrix(1,0,0,1,-763.008,8.396)" visibility="hidden"><animate repeatCount="indefinite" begin="0s" calcMode="discrete" dur="2s" values="hidden; visible; hidden; hidden" keyTimes="0; 0.433; 0.767; 1" attributeName="visibility" /><g transform="matrix(-0.259,0.966,-0.966,-0.259,862.266,47.906)"><path fill="#a01c44" fill-rule="evenodd" d="M12.492,45.854C20.494,43.71,25.242,35.485,23.098,27.483C23.098,27.483,5.878,-36.785,5.878,-36.785C3.734,-44.786,-4.49,-49.535,-12.493,-47.39C-20.495,-45.246,-25.243,-37.021,-23.099,-29.019C-23.099,-29.019,-5.879,35.248,-5.879,35.248C-3.64,43.609,4.84,47.906,12.492,45.854Z" /></g></g><g display="none" visibility="hidden"><animate repeatCount="indefinite" begin="0s" calcMode="discrete" dur="2s" values="hidden; visible; hidden; hidden" keyTimes="0; 0.433; 0.767; 1" attributeName="visibility" /><g transform="translate(-860.266,8.867)"><animateTransform repeatCount="indefinite" type="translate" attributeName="transform" dur="2s" begin="0s" calcMode="spline" values="-860.266 8.867; -860.266 8.867; -662.266 8.867; -662.266 8.867" keyTimes="0; 0.433333; 0.750317; 1" keySplines="0 0 1 1; 0.333 0 0.667 1; 0 0 1 1" fill="freeze" /><g transform="scale(1,1) translate(0,0)"><g transform="matrix(-0.259,0.966,-0.966,-0.259,862.266,47.906)"><path fill="#a01c44" fill-rule="evenodd" d="M12.492,45.854C20.494,43.71,25.242,35.485,23.098,27.483C23.098,27.483,5.878,-36.785,5.878,-36.785C3.734,-44.786,-4.49,-49.535,-12.493,-47.39C-20.495,-45.246,-25.243,-37.021,-23.099,-29.019C-23.099,-29.019,-5.879,35.248,-5.879,35.248C-3.64,43.609,4.84,47.906,12.492,45.854Z" /></g></g></g></g></g></g><g transform="matrix(-0.956,0.292,-0.292,-0.956,169.149,362.794)" visibility="hidden" id="i42"><animate repeatCount="indefinite" begin="0s" calcMode="discrete" dur="2s" values="hidden; visible; hidden; hidden" keyTimes="0; 0.433; 0.767; 1" attributeName="visibility" /><g clip-path="url(#i34)"><g mask="url(#i36)" transform="matrix(1,0,0,1,-763.008,8.396)" visibility="hidden"><animate repeatCount="indefinite" begin="0s" calcMode="discrete" dur="2s" values="hidden; visible; hidden; hidden" keyTimes="0; 0.433; 0.767; 1" attributeName="visibility" /><g transform="matrix(-0.259,0.966,-0.966,-0.259,862.266,47.906)"><path fill="#a01c44" fill-rule="evenodd" d="M12.492,45.854C20.494,43.71,25.242,35.485,23.098,27.483C23.098,27.483,5.878,-36.785,5.878,-36.785C3.734,-44.786,-4.49,-49.535,-12.493,-47.39C-20.495,-45.246,-25.243,-37.021,-23.099,-29.019C-23.099,-29.019,-5.879,35.248,-5.879,35.248C-3.64,43.609,4.84,47.906,12.492,45.854Z" /></g></g><g display="none" visibility="hidden"><animate repeatCount="indefinite" begin="0s" calcMode="discrete" dur="2s" values="hidden; visible; hidden; hidden" keyTimes="0; 0.433; 0.767; 1" attributeName="visibility" /><g transform="translate(-860.266,8.867)"><animateTransform repeatCount="indefinite" type="translate" attributeName="transform" dur="2s" begin="0s" calcMode="spline" values="-860.266 8.867; -860.266 8.867; -662.266 8.867; -662.266 8.867" keyTimes="0; 0.433333; 0.750317; 1" keySplines="0 0 1 1; 0.333 0 0.667 1; 0 0 1 1" fill="freeze" /><g transform="scale(1,1) translate(0,0)"><g transform="matrix(-0.259,0.966,-0.966,-0.259,862.266,47.906)"><path fill="#a01c44" fill-rule="evenodd" d="M12.492,45.854C20.494,43.71,25.242,35.485,23.098,27.483C23.098,27.483,5.878,-36.785,5.878,-36.785C3.734,-44.786,-4.49,-49.535,-12.493,-47.39C-20.495,-45.246,-25.243,-37.021,-23.099,-29.019C-23.099,-29.019,-5.879,35.248,-5.879,35.248C-3.64,43.609,4.84,47.906,12.492,45.854Z" /></g></g></g></g></g></g><g transform="matrix(-0.695,0.719,-0.719,-0.695,235.109,382.314)" visibility="hidden" id="i42"><animate repeatCount="indefinite" begin="0s" calcMode="discrete" dur="2s" values="hidden; visible; hidden; hidden" keyTimes="0; 0.433; 0.767; 1" attributeName="visibility" /><g clip-path="url(#i34)"><g mask="url(#i36)" transform="matrix(1,0,0,1,-763.008,8.396)" visibility="hidden"><animate repeatCount="indefinite" begin="0s" calcMode="discrete" dur="2s" values="hidden; visible; hidden; hidden" keyTimes="0; 0.433; 0.767; 1" attributeName="visibility" /><g transform="matrix(-0.259,0.966,-0.966,-0.259,862.266,47.906)"><path fill="#a01c44" fill-rule="evenodd" d="M12.492,45.854C20.494,43.71,25.242,35.485,23.098,27.483C23.098,27.483,5.878,-36.785,5.878,-36.785C3.734,-44.786,-4.49,-49.535,-12.493,-47.39C-20.495,-45.246,-25.243,-37.021,-23.099,-29.019C-23.099,-29.019,-5.879,35.248,-5.879,35.248C-3.64,43.609,4.84,47.906,12.492,45.854Z" /></g></g><g display="none" visibility="hidden"><animate repeatCount="indefinite" begin="0s" calcMode="discrete" dur="2s" values="hidden; visible; hidden; hidden" keyTimes="0; 0.433; 0.767; 1" attributeName="visibility" /><g transform="translate(-860.266,8.867)"><animateTransform repeatCount="indefinite" type="translate" attributeName="transform" dur="2s" begin="0s" calcMode="spline" values="-860.266 8.867; -860.266 8.867; -662.266 8.867; -662.266 8.867" keyTimes="0; 0.433333; 0.750317; 1" keySplines="0 0 1 1; 0.333 0 0.667 1; 0 0 1 1" fill="freeze" /><g transform="scale(1,1) translate(0,0)"><g transform="matrix(-0.259,0.966,-0.966,-0.259,862.266,47.906)"><path fill="#a01c44" fill-rule="evenodd" d="M12.492,45.854C20.494,43.71,25.242,35.485,23.098,27.483C23.098,27.483,5.878,-36.785,5.878,-36.785C3.734,-44.786,-4.49,-49.535,-12.493,-47.39C-20.495,-45.246,-25.243,-37.021,-23.099,-29.019C-23.099,-29.019,-5.879,35.248,-5.879,35.248C-3.64,43.609,4.84,47.906,12.492,45.854Z" /></g></g></g></g></g></g><g transform="matrix(-0.276,0.961,-0.961,-0.276,289.875,372.447)" visibility="hidden" id="i42"><animate repeatCount="indefinite" begin="0s" calcMode="discrete" dur="2s" values="hidden; visible; hidden; hidden" keyTimes="0; 0.433; 0.767; 1" attributeName="visibility" /><g clip-path="url(#i34)"><g mask="url(#i36)" transform="matrix(1,0,0,1,-763.008,8.396)" visibility="hidden"><animate repeatCount="indefinite" begin="0s" calcMode="discrete" dur="2s" values="hidden; visible; hidden; hidden" keyTimes="0; 0.433; 0.767; 1" attributeName="visibility" /><g transform="matrix(-0.259,0.966,-0.966,-0.259,862.266,47.906)"><path fill="#a01c44" fill-rule="evenodd" d="M12.492,45.854C20.494,43.71,25.242,35.485,23.098,27.483C23.098,27.483,5.878,-36.785,5.878,-36.785C3.734,-44.786,-4.49,-49.535,-12.493,-47.39C-20.495,-45.246,-25.243,-37.021,-23.099,-29.019C-23.099,-29.019,-5.879,35.248,-5.879,35.248C-3.64,43.609,4.84,47.906,12.492,45.854Z" /></g></g><g display="none" visibility="hidden"><animate repeatCount="indefinite" begin="0s" calcMode="discrete" dur="2s" values="hidden; visible; hidden; hidden" keyTimes="0; 0.433; 0.767; 1" attributeName="visibility" /><g transform="translate(-860.266,8.867)"><animateTransform repeatCount="indefinite" type="translate" attributeName="transform" dur="2s" begin="0s" calcMode="spline" values="-860.266 8.867; -860.266 8.867; -662.266 8.867; -662.266 8.867" keyTimes="0; 0.433333; 0.750317; 1" keySplines="0 0 1 1; 0.333 0 0.667 1; 0 0 1 1" fill="freeze" /><g transform="scale(1,1) translate(0,0)"><g transform="matrix(-0.259,0.966,-0.966,-0.259,862.266,47.906)"><path fill="#a01c44" fill-rule="evenodd" d="M12.492,45.854C20.494,43.71,25.242,35.485,23.098,27.483C23.098,27.483,5.878,-36.785,5.878,-36.785C3.734,-44.786,-4.49,-49.535,-12.493,-47.39C-20.495,-45.246,-25.243,-37.021,-23.099,-29.019C-23.099,-29.019,-5.879,35.248,-5.879,35.248C-3.64,43.609,4.84,47.906,12.492,45.854Z" /></g></g></g></g></g></g><g transform="matrix(0.174,0.985,-0.985,0.174,334.277,341.708)" visibility="hidden" id="i42"><animate repeatCount="indefinite" begin="0s" calcMode="discrete" dur="2s" values="hidden; visible; hidden; hidden" keyTimes="0; 0.433; 0.767; 1" attributeName="visibility" /><g clip-path="url(#i34)"><g mask="url(#i36)" transform="matrix(1,0,0,1,-763.008,8.396)" visibility="hidden"><animate repeatCount="indefinite" begin="0s" calcMode="discrete" dur="2s" values="hidden; visible; hidden; hidden" keyTimes="0; 0.433; 0.767; 1" attributeName="visibility" /><g transform="matrix(-0.259,0.966,-0.966,-0.259,862.266,47.906)"><path fill="#a01c44" fill-rule="evenodd" d="M12.492,45.854C20.494,43.71,25.242,35.485,23.098,27.483C23.098,27.483,5.878,-36.785,5.878,-36.785C3.734,-44.786,-4.49,-49.535,-12.493,-47.39C-20.495,-45.246,-25.243,-37.021,-23.099,-29.019C-23.099,-29.019,-5.879,35.248,-5.879,35.248C-3.64,43.609,4.84,47.906,12.492,45.854Z" /></g></g><g display="none" visibility="hidden"><animate repeatCount="indefinite" begin="0s" calcMode="discrete" dur="2s" values="hidden; visible; hidden; hidden" keyTimes="0; 0.433; 0.767; 1" attributeName="visibility" /><g transform="translate(-860.266,8.867)"><animateTransform repeatCount="indefinite" type="translate" attributeName="transform" dur="2s" begin="0s" calcMode="spline" values="-860.266 8.867; -860.266 8.867; -662.266 8.867; -662.266 8.867" keyTimes="0; 0.433333; 0.750317; 1" keySplines="0 0 1 1; 0.333 0 0.667 1; 0 0 1 1" fill="freeze" /><g transform="scale(1,1) translate(0,0)"><g transform="matrix(-0.259,0.966,-0.966,-0.259,862.266,47.906)"><path fill="#a01c44" fill-rule="evenodd" d="M12.492,45.854C20.494,43.71,25.242,35.485,23.098,27.483C23.098,27.483,5.878,-36.785,5.878,-36.785C3.734,-44.786,-4.49,-49.535,-12.493,-47.39C-20.495,-45.246,-25.243,-37.021,-23.099,-29.019C-23.099,-29.019,-5.879,35.248,-5.879,35.248C-3.64,43.609,4.84,47.906,12.492,45.854Z" /></g></g></g></g></g></g></svg>