<svg xmlns="http://www.w3.org/2000/svg" xmlns:xlink="http://www.w3.org/1999/xlink" width="2000" zoomAndPan="magnify" viewBox="0 0 1500 1499.999933" height="2000" preserveAspectRatio="xMidYMid meet" version="1.0"><defs><g/><clipPath id="cb1891d273"><rect x="0" width="1359" y="0" height="566"/></clipPath></defs><rect x="-150" width="1800" fill="#ffffff" y="-149.999993" height="1799.99992" fill-opacity="1"/><rect x="-150" width="1800" fill="#ffffff" y="-149.999993" height="1799.99992" fill-opacity="1"/><g transform="matrix(1, 0, 0, 1, 70, 467)"><g clip-path="url(#cb1891d273)"><g fill="#000000" fill-opacity="1"><g transform="translate(6.182135, 408.620638)"><g><path d="M 19.890625 -198.875 C 19.890625 -229.894531 25.054688 -258.066406 35.390625 -283.390625 C 45.734375 -308.710938 59.988281 -330.519531 78.15625 -348.8125 C 96.320312 -367.113281 117.398438 -381.171875 141.390625 -390.984375 C 165.390625 -400.796875 191.046875 -405.703125 218.359375 -405.703125 C 236.390625 -405.703125 254.285156 -404.046875 272.046875 -400.734375 C 289.816406 -397.421875 305.925781 -392.515625 320.375 -386.015625 C 334.832031 -379.515625 346.4375 -371.425781 355.1875 -361.75 C 363.9375 -352.070312 368.3125 -340.867188 368.3125 -328.140625 C 368.3125 -320.710938 366.785156 -315.472656 363.734375 -312.421875 C 360.691406 -309.378906 357.710938 -307.59375 354.796875 -307.0625 C 351.878906 -306.53125 350.421875 -306.265625 350.421875 -306.265625 C 348.828125 -317.398438 344.316406 -328.40625 336.890625 -339.28125 C 329.460938 -350.15625 319.71875 -359.96875 307.65625 -368.71875 C 295.59375 -377.46875 281.9375 -384.492188 266.6875 -389.796875 C 251.445312 -395.097656 235.335938 -397.75 218.359375 -397.75 C 195.296875 -397.75 173.753906 -393.039062 153.734375 -383.625 C 133.710938 -374.21875 116.007812 -360.695312 100.625 -343.0625 C 85.25 -325.425781 73.25 -304.476562 64.625 -280.21875 C 56.007812 -255.957031 51.703125 -228.84375 51.703125 -198.875 C 51.703125 -169.175781 56.007812 -142.128906 64.625 -117.734375 C 73.25 -93.335938 85.25 -72.320312 100.625 -54.6875 C 116.007812 -37.050781 133.710938 -23.523438 153.734375 -14.109375 C 173.753906 -4.703125 195.296875 0 218.359375 0 C 239.304688 0 259.457031 -4.238281 278.8125 -12.71875 C 298.175781 -21.207031 315.878906 -32.082031 331.921875 -45.34375 C 347.960938 -58.601562 361.019531 -72.523438 371.09375 -87.109375 L 371.09375 -42.5625 C 364.726562 -32.75 353.789062 -24.0625 338.28125 -16.5 C 322.769531 -8.945312 304.609375 -2.984375 283.796875 1.390625 C 262.984375 5.765625 241.171875 7.953125 218.359375 7.953125 C 191.046875 7.953125 165.390625 3.046875 141.390625 -6.765625 C 117.398438 -16.578125 96.320312 -30.628906 78.15625 -48.921875 C 59.988281 -67.222656 45.734375 -89.035156 35.390625 -114.359375 C 25.054688 -139.679688 19.890625 -167.851562 19.890625 -198.875 Z M 19.890625 -198.875 "/></g></g></g><g fill="#000000" fill-opacity="1"><g transform="translate(396.740958, 408.620638)"><g><path d="M 59.65625 0 L 27.84375 0 L 27.84375 -397.75 L 59.65625 -397.75 Z M 59.65625 0 "/></g></g></g><g fill="#000000" fill-opacity="1"><g transform="translate(484.238887, 408.620638)"><g><path d="M 17.90625 -251.78125 C 17.90625 -258.40625 20.488281 -263.375 25.65625 -266.6875 C 30.820312 -270 37.117188 -272.253906 44.546875 -273.453125 C 51.972656 -274.648438 58.867188 -275.25 65.234375 -275.25 L 109.78125 -275.25 C 112.695312 -275.25 114.6875 -274.519531 115.75 -273.0625 C 116.8125 -271.601562 117.34375 -269.941406 117.34375 -268.078125 C 117.34375 -264.367188 115.085938 -259.660156 110.578125 -253.953125 C 106.066406 -248.253906 100.492188 -241.425781 93.859375 -233.46875 C 87.234375 -225.519531 80.601562 -216.242188 73.96875 -205.640625 C 67.34375 -195.035156 61.773438 -182.96875 57.265625 -169.4375 C 52.765625 -155.914062 50.515625 -140.535156 50.515625 -123.296875 C 50.515625 -107.390625 52.832031 -92.273438 57.46875 -77.953125 C 62.113281 -63.640625 68.675781 -50.910156 77.15625 -39.765625 C 85.644531 -28.628906 95.789062 -19.878906 107.59375 -13.515625 C 119.394531 -7.160156 132.453125 -3.984375 146.765625 -3.984375 C 160.554688 -3.984375 173.148438 -6.898438 184.546875 -12.734375 C 195.953125 -18.566406 205.765625 -26.253906 213.984375 -35.796875 C 222.203125 -45.335938 228.566406 -55.742188 233.078125 -67.015625 C 237.585938 -78.285156 239.84375 -89.222656 239.84375 -99.828125 L 239.84375 -275.25 L 271.65625 -275.25 L 271.65625 0 L 239.84375 0 L 239.84375 -29.828125 C 239.84375 -36.992188 238.25 -40.578125 235.0625 -40.578125 C 232.945312 -40.578125 230.03125 -38.71875 226.3125 -35 C 214.644531 -23.070312 201.320312 -12.929688 186.34375 -4.578125 C 171.363281 3.773438 152.472656 7.953125 129.671875 7.953125 C 112.429688 7.953125 97.050781 4.769531 83.53125 -1.59375 C 70.007812 -7.957031 58.609375 -16.570312 49.328125 -27.4375 C 40.046875 -38.3125 32.953125 -50.707031 28.046875 -64.625 C 23.140625 -78.550781 20.6875 -93.070312 20.6875 -108.1875 C 20.6875 -125.425781 23.46875 -141.335938 29.03125 -155.921875 C 34.601562 -170.503906 41.566406 -183.628906 49.921875 -195.296875 C 58.273438 -206.960938 66.5625 -217.300781 74.78125 -226.3125 C 83 -235.332031 89.890625 -242.957031 95.453125 -249.1875 C 101.023438 -255.414062 103.8125 -260.253906 103.8125 -263.703125 C 103.8125 -265.828125 102.679688 -266.953125 100.421875 -267.078125 C 98.171875 -267.210938 96.253906 -267.28125 94.671875 -267.28125 L 67.625 -267.28125 C 59.394531 -267.28125 53.222656 -265.890625 49.109375 -263.109375 C 45.003906 -260.328125 42.085938 -257.144531 40.359375 -253.5625 C 38.640625 -249.988281 36.984375 -246.804688 35.390625 -244.015625 C 33.804688 -241.234375 31.15625 -239.84375 27.4375 -239.84375 C 25.582031 -239.84375 23.53125 -240.835938 21.28125 -242.828125 C 19.03125 -244.816406 17.90625 -247.800781 17.90625 -251.78125 Z M 17.90625 -251.78125 "/></g></g></g><g fill="#000000" fill-opacity="1"><g transform="translate(785.311196, 408.620638)"><g><path d="M 21.484375 -49.71875 C 21.484375 -54.226562 23.003906 -58.003906 26.046875 -61.046875 C 29.097656 -64.097656 32.878906 -65.625 37.390625 -65.625 C 42.160156 -65.625 46.398438 -63.4375 50.109375 -59.0625 C 53.828125 -54.6875 57.738281 -49.25 61.84375 -42.75 C 65.957031 -36.257812 70.929688 -29.695312 76.765625 -23.0625 C 82.597656 -16.4375 90.019531 -10.9375 99.03125 -6.5625 C 108.050781 -2.1875 119.457031 0 133.25 0 C 145.976562 0 157.910156 -2.050781 169.046875 -6.15625 C 180.179688 -10.269531 189.859375 -15.707031 198.078125 -22.46875 C 206.296875 -29.226562 212.722656 -36.519531 217.359375 -44.34375 C 222.003906 -52.164062 224.328125 -59.789062 224.328125 -67.21875 C 224.328125 -79.414062 221.539062 -89.359375 215.96875 -97.046875 C 210.40625 -104.734375 202.847656 -110.765625 193.296875 -115.140625 C 183.753906 -119.523438 173.082031 -123.109375 161.28125 -125.890625 C 149.488281 -128.671875 137.359375 -131.1875 124.890625 -133.4375 C 112.429688 -135.695312 100.300781 -138.484375 88.5 -141.796875 C 76.695312 -145.109375 66.019531 -149.484375 56.46875 -154.921875 C 46.925781 -160.359375 39.367188 -167.648438 33.796875 -176.796875 C 28.234375 -185.941406 25.453125 -197.675781 25.453125 -212 C 25.453125 -225.257812 29.429688 -237.257812 37.390625 -248 C 45.347656 -258.738281 56.945312 -267.289062 72.1875 -273.65625 C 87.4375 -280.019531 106.195312 -283.203125 128.46875 -283.203125 C 161.882812 -283.203125 187.007812 -280.082031 203.84375 -273.84375 C 220.6875 -267.613281 229.109375 -259.066406 229.109375 -248.203125 C 229.109375 -245.285156 227.582031 -242.429688 224.53125 -239.640625 C 221.476562 -236.859375 217.960938 -235.46875 213.984375 -235.46875 C 207.890625 -235.46875 202.054688 -237.585938 196.484375 -241.828125 C 190.921875 -246.078125 184.957031 -251.050781 178.59375 -256.75 C 172.226562 -262.445312 165.066406 -267.414062 157.109375 -271.65625 C 149.148438 -275.90625 139.738281 -278.03125 128.875 -278.03125 C 114.289062 -278.03125 101.628906 -275.113281 90.890625 -269.28125 C 80.148438 -263.445312 71.796875 -256.019531 65.828125 -247 C 59.859375 -237.988281 56.875 -228.578125 56.875 -218.765625 C 56.875 -206.828125 60.320312 -197.476562 67.21875 -190.71875 C 74.113281 -183.957031 83.195312 -178.71875 94.46875 -175 C 105.738281 -171.289062 118.132812 -168.175781 131.65625 -165.65625 C 145.175781 -163.144531 158.695312 -160.296875 172.21875 -157.109375 C 185.75 -153.929688 198.144531 -149.488281 209.40625 -143.78125 C 220.675781 -138.082031 229.757812 -130.191406 236.65625 -120.109375 C 243.550781 -110.035156 247 -96.78125 247 -80.34375 C 247 -61.519531 241.757812 -45.476562 231.28125 -32.21875 C 220.8125 -18.957031 206.691406 -8.945312 188.921875 -2.1875 C 171.160156 4.570312 151.144531 7.953125 128.875 7.953125 C 114.820312 7.953125 101.363281 6.226562 88.5 2.78125 C 75.632812 -0.664062 64.164062 -5.238281 54.09375 -10.9375 C 44.019531 -16.632812 36.066406 -22.863281 30.234375 -29.625 C 24.398438 -36.394531 21.484375 -43.09375 21.484375 -49.71875 Z M 21.484375 -49.71875 "/></g></g></g><g fill="#000000" fill-opacity="1"><g transform="translate(1050.98667, 408.620638)"><g><path d="M 27.84375 0 L 27.84375 -397.75 L 59.65625 -397.75 L 59.65625 -245.8125 C 59.65625 -239.175781 60.851562 -235.859375 63.25 -235.859375 C 64.832031 -235.859375 67.75 -237.71875 72 -241.4375 C 86.3125 -255.21875 101.554688 -265.625 117.734375 -272.65625 C 133.910156 -279.6875 152.335938 -283.203125 173.015625 -283.203125 C 193.171875 -283.203125 210.867188 -279.289062 226.109375 -271.46875 C 241.359375 -263.644531 253.289062 -252.835938 261.90625 -239.046875 C 270.53125 -225.253906 274.84375 -209.34375 274.84375 -191.3125 L 274.84375 0 L 243.03125 0 L 243.03125 -190.515625 C 243.03125 -209.347656 239.445312 -224.992188 232.28125 -237.453125 C 225.125 -249.921875 215.710938 -259.335938 204.046875 -265.703125 C 192.378906 -272.066406 179.914062 -275.25 166.65625 -275.25 C 153.394531 -275.25 140.398438 -272.726562 127.671875 -267.6875 C 114.941406 -262.644531 103.472656 -255.816406 93.265625 -247.203125 C 83.054688 -238.585938 74.898438 -228.84375 68.796875 -217.96875 C 62.703125 -207.09375 59.65625 -195.820312 59.65625 -184.15625 L 59.65625 0 Z M 27.84375 0 "/></g></g></g></g></g></svg>